# xmcd CD database file
#
# Track frame offsets:
#	150
#	14620
#	29735
#	43627
#	59740
#	72945
#	90780
#	105287
#	115830
#	131937
#	145295
#	157187
#	170310
#	178540
#
# Disc length: 2551 seconds
#
# Revision: 2
# Processed by: cddbd v1.5.1PL2 Copyright (c) Steve Scherf et al.
# Submitted via: CDex 1.50
#
DISCID=c409f50e
DTITLE=Mato Grosso and Mathias - Acústico
DYEAR=1900
DGENRE=
TTITLE0=De igual pra igual
TTITLE1=Foi pensando em você
TTITLE2=Irmãos de sangue
TTITLE3=O matuto
TTITLE4=24 horas de amor
TTITLE5=Ímã
TTITLE6=Volte amor
TTITLE7=Pedaço de minha vida
TTITLE8=Memória
TTITLE9=Porque?
TTITLE10=Falso juramento
TTITLE11=Espinhos da vida
TTITLE12=Pai Tião
TTITLE13=Depois de uma
EXTD=
EXTT0=
EXTT1=
EXTT2=
EXTT3=
EXTT4=
EXTT5=
EXTT6=
EXTT7=
EXTT8=
EXTT9=
EXTT10=
EXTT11=
EXTT12=
EXTT13=
PLAYORDER=
